<?xml version="1.0" encoding="iso-8859-1"?>
<!-- Generator: Adobe Illustrator 16.0.0, SVG Export Plug-In . SVG Version: 6.00 Build 0)  -->
<!DOCTYPE svg PUBLIC "-//W3C//DTD SVG 1.1//EN" "http://www.w3.org/Graphics/SVG/1.1/DTD/svg11.dtd">
<svg version="1.1"
	 id="svg2985" inkscape:version="0.48.2 r9819" sodipodi:docname="gbtv_roku_setup_guide.pdf" xmlns:inkscape="http://www.inkscape.org/namespaces/inkscape" xmlns:sodipodi="http://sodipodi.sourceforge.net/DTD/sodipodi-0.dtd" xmlns:svg="http://www.w3.org/2000/svg" xmlns:rdf="http://www.w3.org/1999/02/22-rdf-syntax-ns#" xmlns:cc="http://creativecommons.org/ns#" xmlns:dc="http://purl.org/dc/elements/1.1/"
	 xmlns="http://www.w3.org/2000/svg" xmlns:xlink="http://www.w3.org/1999/xlink" x="0px" y="0px" width="999.001px"
	 height="310.166px" viewBox="137.5 283.511 999.001 310.166" style="enable-background:new 137.5 283.511 999.001 310.166;"
	 xml:space="preserve">
<path id="path3023_1_" inkscape:connector-curvature="0" style="fill:#6C3C97;" d="M294.84,385.497
	c0-28.38-22.832-51.235-50.751-51.235h-25.168v102.017h25.168C272.008,436.279,294.84,413.408,294.84,385.497 M409.326,588.871
	h-92.388L243.59,487.082h-24.669v101.569H137.5V283.511H254.14c67.242,0,122.127,45.726,122.127,101.986
	c0,34.312-21.041,64.959-53.063,83.711L409.326,588.871"/>
<path id="path3027_1_" inkscape:connector-curvature="0" style="fill:#6C3C97;" d="M501.15,403.809
	c-21.502,0-39.792,29.227-39.792,65.406c0,36.179,18.29,65.443,39.792,65.443c22.001,0,40.261-29.265,40.261-65.443
	C541.411,433.035,523.151,403.809,501.15,403.809 M626.474,469.215c0,69.116-56.207,124.462-125.324,124.462
	c-69.094,0-124.886-55.346-124.886-124.462c0-69.064,55.792-124.44,124.886-124.44C570.267,344.775,626.474,400.151,626.474,469.215
	"/>
<path id="path3031_1_" inkscape:connector-curvature="0" style="fill:#6C3C97;" d="M817.544,349.836l-93.793,93.778v-94.088h-81.405
	V588.65h81.405v-96.998l97.92,96.998h102.462L799.7,464.201l103.066-103.028v141.906c0,47.115,28.334,90.596,99.688,90.596
	c33.874,0,64.959-19.212,80.067-36.595l36.603,31.569h17.376V349.836h-81.406v124.418v30.201c-9.167,16-21.94,26.06-41.681,26.06
	c-20.029,0-29.219-11.874-29.219-49.853v-10.021V349.836H817.544z"/>
</svg>
